# File created by Blade
# Date/Time:  Tue Jan 27 19:18:41 2015
# Frame Rate: 120.000 fps
#------------------------------------------------------
:FULLY-SPECIFIED
:DEGREES
1947
root 3.786073 32.335992 0.818551 -3.197091 3.828802 0.900318
Spine 0.930953 9.029795 0.665232
Head 7.782896 -18.810357 -11.887150
LeftShoulder -4.972162 -6.760379 22.701228
LeftArm -4.652436 42.180610 -101.337445
LeftForeArm 3.936394 0.000000 16.003141
LeftHand 10.536767 -0.000000 -4.289516
LeftHandThumb1 -26.253704 0.000000 33.147579
RightShoulder -6.886778 5.714902 -43.043189
RightArm 24.237122 62.106843 52.794338
RightForeArm 15.181986 -0.000000 39.144051
RightHand 23.585209 -0.000000 -15.872800
RightHandThumb1 -24.326973 -0.000000 -32.862282
LeftUpLeg 8.866623 -2.083685 -0.760410
LeftLeg 2.531170 -0.000000 -0.000000
LeftFoot -17.004233 12.065099 -22.897652
LeftToeBase 16.891516 -0.000000 -0.000000
RightUpLeg 9.135064 -9.698227 1.090635
RightLeg 0.095741 -0.000000 -0.000000
RightFoot -12.998495 -15.433477 14.020579
RightToeBase 9.962985 -0.000000 -0.000000
1948
root 3.784608 32.336639 0.817542 -3.195900 3.793269 0.902394
Spine 0.936597 9.043949 0.681746
Head 7.782492 -18.822444 -11.888406
LeftShoulder -4.988988 -6.752598 22.683606
LeftArm -4.619722 42.238094 -101.320417
LeftForeArm 4.138457 0.000000 15.982192
LeftHand 10.492652 -0.000000 -3.126016
LeftHandThumb1 -26.253704 0.000000 33.147579
RightShoulder -6.855706 5.637421 -43.001505
RightArm 24.570892 62.729926 53.406421
RightForeArm 15.316316 0.000000 41.289104
RightHand 23.802813 -0.000000 -16.106526
RightHandThumb1 -24.326973 -0.000000 -32.862282
LeftUpLeg 8.865335 -2.051240 -0.757980
LeftLeg 2.542531 -0.000000 -0.000000
LeftFoot -16.987606 11.984751 -23.083803
LeftToeBase 16.653210 -0.000000 -0.000000
RightUpLeg 9.126759 -9.690457 1.092505
RightLeg 0.095034 -0.000000 -0.000000
RightFoot -12.976856 -15.427994 13.990224
RightToeBase 9.914477 -0.000000 -0.000000
1949
root 3.784104 32.337492 0.816008 -3.190194 3.747020 0.904808
Spine 0.935613 9.065423 0.702802
Head 7.783833 -18.856444 -11.885454
LeftShoulder -5.001341 -6.774084 22.667672
LeftArm -4.622629 42.238997 -101.316782
LeftForeArm 4.141755 -0.000000 15.971606
LeftHand 10.497893 -0.000000 -3.218508
LeftHandThumb1 -26.253704 0.000000 33.147579
RightShoulder -6.853640 5.683939 -42.983894
RightArm 24.808895 63.243676 53.988203
RightForeArm 15.468808 -0.000000 43.516304
RightHand 24.026074 -0.000000 -16.548264
RightHandThumb1 -24.326973 -0.000000 -32.862282
LeftUpLeg 8.860591 -2.023725 -0.758530
LeftLeg 2.546851 -0.000000 -0.000000
LeftFoot -16.990398 11.987132 -23.111008
LeftToeBase 16.684604 -0.000000 -0.000000
RightUpLeg 9.111168 -9.676340 1.091375
RightLeg 0.095270 -0.000000 -0.000000
RightFoot -12.945318 -15.409969 13.955440
RightToeBase 9.894418 -0.000000 -0.000000
1950
root 3.782720 32.339141 0.814600 -3.183741 3.700866 0.899043
Spine 0.936425 9.075607 0.744466
Head 7.789223 -18.870343 -11.920394
LeftShoulder -5.035270 -6.735246 22.623003
LeftArm -4.553193 42.266204 -101.239615
LeftForeArm 4.119147 0.000000 15.988678
LeftHand 10.491827 -0.000000 -3.287477
LeftHandThumb1 -26.253704 0.000000 33.147579
RightShoulder -6.850525 5.373239 -42.901263
RightArm 25.660146 63.910824 55.087577
RightForeArm 15.710941 -0.000000 45.858581
RightHand 24.246003 -0.000000 -16.834642
RightHandThumb1 -24.326973 -0.000000 -32.862282
LeftUpLeg 8.854439 -1.976641 -0.749550
LeftLeg 2.551486 -0.000000 -0.000000
LeftFoot -16.907460 12.090036 -22.750194
LeftToeBase 16.610939 -0.000000 -0.000000
RightUpLeg 9.099272 -9.627972 1.109313
RightLeg 0.083743 -0.000000 -0.000000
RightFoot -12.911202 -15.455721 13.909967
RightToeBase 9.860533 -0.000000 -0.000000
